<mxfile host="app.diagrams.net" modified="2022-10-02T13:26:14.053Z" agent="5.0 (Macintosh; Intel Mac OS X 10_15_7) AppleWebKit/537.36 (KHTML, like Gecko) Chrome/105.0.0.0 Safari/537.36" etag="R20_w0T_7jswi8Hw2dYq" version="20.3.7" type="github">
  <diagram id="etRL2izVhvW_Ui8S_GAb" name="Page-1">
    <mxGraphModel dx="1018" dy="659" grid="1" gridSize="10" guides="1" tooltips="1" connect="1" arrows="1" fold="1" page="1" pageScale="1" pageWidth="850" pageHeight="1100" math="0" shadow="0">
      <root>
        <mxCell id="0" />
        <mxCell id="1" parent="0" />
        <mxCell id="UQDUE2DFfP7jiambvsXt-1" value="" style="shape=image;verticalLabelPosition=bottom;labelBackgroundColor=default;verticalAlign=top;aspect=fixed;imageAspect=0;image=https://charlesliuyx.github.io/2018/03/03/%E3%80%90%E5%8C%BA%E5%9D%97%E9%93%BE%E3%80%91%E5%A6%82%E4%BD%95%E8%A7%A3%E5%86%B3%E6%8B%9C%E5%8D%A0%E5%BA%AD%E5%B0%86%E5%86%9B%E9%97%AE%E9%A2%98/BG1.png;" vertex="1" parent="1">
          <mxGeometry x="210" y="90" width="420" height="520" as="geometry" />
        </mxCell>
      </root>
    </mxGraphModel>
  </diagram>
</mxfile>
